<!DOCTYPE svg PUBLIC "-//W3C//DTD SVG 1.1//EN" "http://www.w3.org/Graphics/SVG/1.1/DTD/svg11.dtd">
<!-- Uploaded to: SVG Repo, www.svgrepo.com, Transformed by: SVG Repo Mixer Tools -->
<svg fill="rgb(251, 114, 43)" height="800px" width="800px" version="1.1" id="Layer_1" xmlns="http://www.w3.org/2000/svg" xmlns:xlink="http://www.w3.org/1999/xlink" viewBox="0 0 512 512" xml:space="preserve">
<g id="SVGRepo_bgCarrier" stroke-width="0"/>
<g id="SVGRepo_tracerCarrier" stroke-linecap="round" stroke-linejoin="round"/>
<g id="SVGRepo_iconCarrier"> <g> <g> <path d="M489.739,200.348c9.22,0,16.696-7.475,16.696-16.696V116.87c0-9.22-7.475-16.696-16.696-16.696h-16.696V50.087 C473.043,22.469,450.574,0,422.957,0H89.044C61.426,0,38.957,22.469,38.957,50.087v50.087H22.261 c-9.22,0-16.696,7.475-16.696,16.696v66.783c0,9.22,7.475,16.696,16.696,16.696h16.696v114.165 c-19.435,6.891-33.391,25.46-33.391,47.226v66.783c0,9.22,7.475,16.696,16.696,16.696h16.696v33.391 c0,18.412,14.979,33.391,33.391,33.391h33.391c18.412,0,33.391-14.979,33.391-33.391v-33.391H372.87v33.391 c0,18.412,14.979,33.391,33.391,33.391h33.391c18.412,0,33.391-14.979,33.391-33.391v-33.391h16.696 c9.22,0,16.696-7.475,16.696-16.696v-66.783c0-21.767-13.956-40.336-33.391-47.226V200.348H489.739z M38.957,133.565h66.783 v33.391H38.957V133.565z M105.739,200.348v111.304H72.348V200.348H105.739z M38.957,411.826v-50.087 c0-9.206,7.49-16.696,16.696-16.696h50.087v66.783C98.067,411.826,46.155,411.826,38.957,411.826z M105.739,478.609H72.348 v-33.391h33.398l0.015,33.39C105.76,478.608,105.754,478.609,105.739,478.609z M372.87,411.826H139.13V244.87H372.87V411.826z M139.13,211.478v-27.826V116.87c0-9.206,7.49-16.696,16.696-16.696h83.478v111.304H139.13z M372.87,183.652v27.826H272.696 V100.174h83.478c9.206,0,16.696,7.49,16.696,16.696V183.652z M403.389,100.174c-6.892-19.433-25.45-33.391-47.215-33.391H155.826 c-21.766,0-40.323,13.959-47.215,33.391H72.348V50.087c0-9.206,7.49-16.696,16.696-16.696h333.913 c9.206,0,16.696,7.49,16.696,16.696v50.087H403.389z M406.261,200.348h33.391v111.304h-33.391V200.348z M439.652,478.609h-33.391 v-33.391h33.398l0.014,33.39C439.673,478.608,439.667,478.609,439.652,478.609z M473.043,411.826c-7.312,0-58.286,0-66.783,0 v-66.783h50.087c9.206,0,16.696,7.49,16.696,16.696V411.826z M406.261,166.957v-33.391h66.783v33.391H406.261z"/> </g> </g> <g> <g> <path d="M322.783,278.261H189.217c-9.22,0-16.696,7.475-16.696,16.696s7.475,16.696,16.696,16.696h133.565 c9.22,0,16.696-7.475,16.696-16.696S332.003,278.261,322.783,278.261z"/> </g> </g> <g> <g> <path d="M322.783,345.043H189.217c-9.22,0-16.696,7.475-16.696,16.696s7.475,16.696,16.696,16.696h133.565 c9.22,0,16.696-7.475,16.696-16.696S332.003,345.043,322.783,345.043z"/> </g> </g> </g>
</svg>